<?xml version="1.0" encoding="UTF-8"?>
<svg id="Layer_2" data-name="Layer 2" xmlns="http://www.w3.org/2000/svg" viewBox="0 0 40.3 44.02">
  <defs>
    <style>
      .cls-1 {
        fill: #262524;
      }
    </style>
  </defs>
  <g id="Layer_1-2" data-name="Layer 1">
    <path class="cls-1" d="M31.85,13.34c.2.1.42.15.63.15.52,0,1.02-.29,1.27-.79l1.42-2.84c.35-.7.07-1.55-.64-1.91-.7-.35-1.56-.07-1.91.64l-1.42,2.84c-.35.7-.07,1.56.64,1.91ZM33.22,17.27c.12.69.72,1.19,1.4,1.19.08,0,.16,0,.23-.02l4.26-.71c.77-.13,1.3-.86,1.17-1.63-.13-.77-.86-1.3-1.63-1.17l-4.26.71c-.77.13-1.3.86-1.17,1.63ZM38.88,20.59h-21.92l4.71-3.95h0s6.53-5.48,6.53-5.48c.58-.49.94-1.17,1-1.93.07-.76-.17-1.49-.65-2.07l-3.22-3.83c-1.01-1.2-2.8-1.36-4-.35l-1.6,1.34c-.64-2.05-2.32-3.66-4.44-4.16-2.29-.54-4.74.3-6.23,2.14-1.01,1.24-1.24,2.93-.6,4.39l.75,1.71-1.56-1.03c-1.33-.89-3.03-.95-4.43-.18C1.13,8.35-.12,10.62,0,12.97c.13,2.18,1.42,4.11,3.32,5.09l-1.6,1.34c-1.2,1.01-1.35,2.8-.35,4l3.22,3.83c.49.58,1.17.94,1.93,1,.09,0,.17.01.25.01.67,0,1.31-.23,1.82-.66l3.29-2.76v14.93c0,2.35,1.91,4.26,4.26,4.26h19.88c2.35,0,4.26-1.91,4.26-4.26v-17.75c0-.78-.64-1.42-1.42-1.42ZM23.14,5.15h0s3.22,3.83,3.22,3.83l-5.44,4.56-3.22-3.84,5.44-4.56ZM11.25,4.09c.65-.8,1.62-1.26,2.62-1.26.25,0,.5.03.75.09,1.24.29,2.21,1.29,2.48,2.56.11.51-.07,1.04-.48,1.39-.96.82-2.52,2.12-3.66,3.07l-1.92-4.39c-.21-.49-.14-1.05.2-1.47ZM2.84,12.81c-.07-1.27.61-2.5,1.74-3.12.46-.26,1.03-.24,1.48.06l3.99,2.65c-1.14.96-2.69,2.27-3.67,3.08-.4.34-.96.43-1.46.22-1.19-.47-2-1.6-2.08-2.88ZM6.78,25.42l-3.22-3.83,5.44-4.57,3.22,3.83-5.44,4.56ZM11.17,15.19l4.35-3.65,3.22,3.83-4.35,3.65-3.22-3.83ZM20.41,41.18h-4.26c-.78,0-1.42-.64-1.42-1.42v-16.33h5.68v17.75ZM28.94,41.18h-5.68v-17.75h5.68v17.75ZM37.46,39.76c0,.78-.64,1.42-1.42,1.42h-4.26v-17.75h5.68v16.33Z"/>
  </g>
</svg>