<?xml version="1.0" encoding="UTF-8"?>
<svg id="Layer_2" data-name="Layer 2" xmlns="http://www.w3.org/2000/svg" viewBox="0 0 39.39 40">
  <defs>
    <style>
      .cls-1 {
        fill: #262524;
      }
    </style>
  </defs>
  <g id="Layer_1-2" data-name="Layer 1">
    <path class="cls-1" d="M36.62,24.69c-.73-.26-1.38-.86-1.38-1.64v-5.85c0-1.71-1.4-3.11-3.11-3.11H7.26c-1.71,0-3.11,1.4-3.11,3.11v5.85c0,.77-.65,1.38-1.38,1.64-1.61.57-2.77,2.1-2.77,3.91v7.26c0,.57.47,1.04,1.04,1.04s1.04.46,1.04,1.04v1.04c0,.57.47,1.04,1.04,1.04h4.14c.57,0,1.04-.47,1.04-1.04v-.67c0-.77.63-1.4,1.4-1.4h20c.77,0,1.4.63,1.4,1.4v.67c0,.57.47,1.04,1.04,1.04h4.14c.57,0,1.04-.47,1.04-1.04v-1.04c0-.57.46-1.04,1.04-1.04s1.04-.47,1.04-1.04v-7.26c0-1.81-1.16-3.34-2.77-3.91ZM6.21,17.2c0-.57.47-1.04,1.04-1.04h24.87c.57,0,1.04.47,1.04,1.04,0,0,0,0,0,0s0,0,0,0v6.73c0,.29-.23.52-.52.52s-.52-.23-.52-.52v-1.56c0-1.14-.93-2.07-2.07-2.07h-6.22c-1.14,0-2.07.93-2.07,2.07v.67c0,.77-.63,1.4-1.4,1.4h-1.34c-.77,0-1.4-.63-1.4-1.4v-.67c0-1.14-.93-2.07-2.07-2.07h-6.22c-1.14,0-2.07.93-2.07,2.07v1.56c0,.29-.23.52-.52.52s-.52-.23-.52-.52v-6.74ZM30.05,23.42c0,.57-.46,1.04-1.04,1.04h-4.14c-.57,0-1.04-.46-1.04-1.04s.46-1.04,1.04-1.04h4.14c.57,0,1.04.46,1.04,1.04ZM15.55,23.42c0,.57-.46,1.04-1.04,1.04h-4.14c-.57,0-1.04-.46-1.04-1.04s.46-1.04,1.04-1.04h4.14c.57,0,1.04.46,1.04,1.04ZM5.7,37.93h-1.04c-.29,0-.52-.23-.52-.52s.23-.52.52-.52h1.04c.29,0,.52.23.52.52s-.23.52-.52.52ZM34.72,37.93h-1.04c-.29,0-.52-.23-.52-.52s.23-.52.52-.52h1.04c.29,0,.52.23.52.52s-.23.52-.52.52ZM37.31,34.82s0,0,0,0H3.11c-.57,0-1.04-.46-1.04-1.04s.46-1.04,1.04-1.04h33.16c.57,0,1.04.46,1.04,1.04v1.03ZM37.31,29.27c0,.77-.63,1.4-1.4,1.4H3.48c-.77,0-1.4-.63-1.4-1.4v-.67c0-1.14.93-2.07,2.07-2.07h31.09c1.14,0,2.07.93,2.07,2.07v.67ZM15.8,6.36c.33.32.48.79.4,1.24l-.33,1.95c-.06.37.09.73.39.96.17.13.37.19.57.19.16,0,.31-.04.45-.12l1.76-.92c.41-.21.9-.21,1.31,0l1.75.92c.32.17.73.14,1.02-.08.3-.23.45-.58.39-.96l-.33-1.95c-.08-.45.07-.92.4-1.24l1.42-1.38c.26-.26.36-.64.25-.99,0,0,0,0,0,0,0,0,0,0,0,0-.1-.35-.4-.6-.77-.65l-1.97-.28c-.46-.07-.86-.35-1.06-.77l-.87-1.78c-.32-.64-1.43-.64-1.74,0l-.88,1.78c-.2.41-.6.7-1.06.77l-1.97.28c-.37.05-.67.31-.79.66-.12.35-.02.74.25.99l1.42,1.38ZM18.41,4.78c.32-.05.59-.24.73-.54.23-.46.89-.46,1.12,0,.15.29.42.49.73.54l.69.1c.23.03.32.32.16.48l-.49.48s0,0,0,0c0,0,0,0,0,0-.23.23-.33.54-.28.86.09.51-.44.9-.9.66-.28-.15-.63-.15-.9,0-.46.24-.99-.15-.9-.66.06-.31-.05-.64-.28-.86-.37-.36-.17-.99.34-1.06Z"/>
  </g>
</svg>