<?xml version="1.0" encoding="UTF-8"?>
<svg id="Layer_2" data-name="Layer 2" xmlns="http://www.w3.org/2000/svg" viewBox="0 0 33.33 40">
  <defs>
    <style>
      .cls-1 {
        fill: #262524;
      }
    </style>
  </defs>
  <g id="Layer_1-2" data-name="Layer 1">
    <path class="cls-1" d="M23.01,19.61h-3.63l-1.12-3.45c-.22-.69-.86-1.15-1.58-1.15s-1.36.46-1.59,1.15l-1.12,3.45h-3.63c-.72,0-1.36.47-1.59,1.15-.22.69.02,1.44.61,1.86l2.94,2.14-1.12,3.45c-.22.69.02,1.44.61,1.86.58.42,1.38.42,1.96,0l2.94-2.14,2.94,2.14c.58.42,1.38.42,1.96,0,.58-.42.83-1.18.61-1.86l-1.12-3.45,2.94-2.14c.58-.42.83-1.18.61-1.86s-.86-1.15-1.58-1.15ZM19.01,26.81c-1.46-.77-3.22-.77-4.68,0,.28-1.63-.26-3.3-1.45-4.45,1.64-.23,3.06-1.26,3.78-2.75.73,1.49,2.15,2.52,3.78,2.75-1.19,1.15-1.73,2.82-1.45,4.45ZM24,8.36l2.18-2.18c.31-.31.49-.74.49-1.18V1.67c0-.92-.75-1.67-1.67-1.67H8.33c-.92,0-1.67.75-1.67,1.67v3.33c0,.44.18.87.49,1.18l2.18,2.18C3.81,11.07,0,16.76,0,23.33c0,9.2,7.46,16.67,16.67,16.67s16.67-7.46,16.67-16.67c0-6.57-3.81-12.26-9.34-14.97ZM10,3.33h13.33v.98l-2.36,2.36h-8.62l-2.36-2.36v-.98ZM16.67,36.67c-7.36,0-13.33-5.97-13.33-13.33s5.97-13.33,13.33-13.33,13.33,5.97,13.33,13.33-5.97,13.33-13.33,13.33Z"/>
  </g>
</svg>