<?xml version="1.0" encoding="UTF-8"?>
<svg id="Layer_2" data-name="Layer 2" xmlns="http://www.w3.org/2000/svg" viewBox="0 0 39.5 39.5">
  <defs>
    <style>
      .cls-1 {
        fill: #262524;
      }
    </style>
  </defs>
  <g id="Layer_1-2" data-name="Layer 1">
    <path class="cls-1" d="M26.99,12.51c-.34-.34-.79-.51-1.24-.51s-.9.17-1.24.51l-12,12c-.68.68-.68,1.79,0,2.47s1.81.66,2.47,0l12-12c.68-.68.68-1.79,0-2.47ZM14.75,17.52h.02c1.52,0,2.75-1.23,2.75-2.75s-1.23-2.77-2.75-2.77-2.77,1.23-2.77,2.75,1.23,2.77,2.75,2.77ZM24.77,22h-.02c-1.52,0-2.75,1.23-2.75,2.75s1.23,2.77,2.75,2.77,2.77-1.23,2.77-2.75-1.23-2.77-2.75-2.77ZM37.59,15.47l-1.57-1.4c-.51-.46-.78-1.11-.75-1.8l.12-2.1c.09-1.63-.52-3.23-1.67-4.38s-2.76-1.77-4.38-1.67l-2.1.12c-.7.04-1.34-.24-1.8-.75l-1.4-1.57c-1.09-1.22-2.65-1.92-4.28-1.92h0c-1.63,0-3.19.7-4.28,1.92l-1.4,1.57c-.46.51-1.1.78-1.8.75l-2.1-.12c-1.62-.09-3.23.52-4.38,1.67-1.16,1.15-1.77,2.75-1.67,4.38l.12,2.1c.04.69-.23,1.34-.75,1.8l-1.57,1.4c-1.22,1.09-1.92,2.65-1.92,4.28s.7,3.19,1.92,4.28l1.57,1.4c.51.46.78,1.12.75,1.8l-.12,2.1c-.09,1.63.52,3.23,1.67,4.38s2.76,1.76,4.38,1.67l2.1-.12s.08,0,.13,0c.64,0,1.25.27,1.67.75l1.4,1.56c1.09,1.22,2.65,1.91,4.28,1.91s3.19-.7,4.28-1.91l1.4-1.57c.46-.51,1.13-.78,1.8-.75l2.1.12c1.62.09,3.23-.52,4.38-1.67s1.77-2.75,1.67-4.38l-.12-2.1c-.04-.69.23-1.34.75-1.8l1.57-1.4c1.22-1.09,1.91-2.65,1.91-4.28s-.7-3.2-1.91-4.28ZM35.25,21.43l-1.57,1.4c-1.31,1.17-2,2.85-1.91,4.6l.12,2.1c.04.64-.2,1.26-.66,1.71-.45.45-1.09.69-1.71.66l-2.1-.12c-1.75-.11-3.43.6-4.6,1.91l-1.4,1.57c-.43.48-1.04.75-1.68.75s-1.25-.27-1.68-.75l-1.4-1.57c-1.17-1.31-2.84-2-4.6-1.91l-2.1.12c-.63.03-1.26-.21-1.71-.66s-.69-1.08-.66-1.71l.12-2.1c.1-1.75-.6-3.43-1.91-4.6l-1.56-1.4c-.48-.43-.75-1.04-.75-1.68s.27-1.25.75-1.68l1.56-1.4c1.31-1.17,2-2.85,1.91-4.6l-.12-2.1c-.04-.64.2-1.26.66-1.71.45-.45,1.08-.69,1.71-.66l2.1.12c1.76.1,3.43-.6,4.6-1.91l1.4-1.56c.43-.48,1.04-.75,1.68-.75s1.25.27,1.68.75l1.4,1.56c1.17,1.31,2.85,2.02,4.6,1.91l2.1-.12c.63-.03,1.26.2,1.71.66s.69,1.08.66,1.71l-.12,2.1c-.1,1.75.6,3.43,1.91,4.6l1.57,1.4c.48.43.75,1.04.75,1.68s-.27,1.25-.75,1.68Z"/>
  </g>
</svg>